<!--?xml version="1.0" encoding="utf-8"?-->
<!-- Generator: Adobe Illustrator 18.1.1, SVG Export Plug-In . SVG Version: 6.00 Build 0)  -->

<svg version="1.1" id="_x32_" xmlns="http://www.w3.org/2000/svg" xmlns:xlink="http://www.w3.org/1999/xlink" x="0px" y="0px" viewBox="0 0 512 512" style="width: 256px; height: 256px; opacity: 1;" xml:space="preserve">
<style type="text/css">
	.st0{fill:#4B4B4B;}
</style>
<g>
	<path class="st0" d="M300.056,92.714l62.15,16.497c1.63,0.33,2.938,1.655,3.311,3.285l16.386,62.158
		c0.442,1.826,2.054,3.107,3.923,3.107c1.885,0,3.464-1.282,3.888-3.107l16.42-62.158c0.34-1.63,1.664-2.955,3.294-3.285
		l62.166-16.497c1.817-0.34,3.107-1.961,3.107-3.829c0-1.885-1.29-3.472-3.107-3.838L409.428,68.56
		c-1.63-0.348-2.954-1.655-3.294-3.285l-16.42-62.158C389.289,1.308,387.71,0,385.826,0c-1.868,0-3.481,1.308-3.923,3.116
		l-16.386,62.158c-0.373,1.63-1.681,2.937-3.311,3.285l-62.15,16.488c-1.834,0.365-3.107,1.953-3.107,3.838
		C296.949,90.753,298.222,92.374,300.056,92.714z" style="fill: rgb(214, 187, 0);"></path>
	<path class="st0" d="M81.601,175.333l11.7,44.413c0.323,1.316,1.477,2.225,2.802,2.225c1.342,0,2.479-0.908,2.802-2.225
		l11.7-44.413c0.254-1.171,1.206-2.113,2.378-2.36l44.421-11.767c1.291-0.271,2.225-1.443,2.225-2.768
		c0-1.325-0.934-2.462-2.225-2.734l-44.421-11.784c-1.172-0.255-2.123-1.172-2.378-2.344l-11.7-44.438
		c-0.323-1.29-1.46-2.208-2.802-2.208c-1.325,0-2.479,0.917-2.802,2.208l-11.7,44.438c-0.272,1.172-1.206,2.089-2.377,2.344
		l-44.405,11.784c-1.324,0.272-2.241,1.409-2.241,2.734c0,1.324,0.917,2.496,2.241,2.768l44.405,11.767
		C80.395,173.22,81.329,174.162,81.601,175.333z" style="fill: rgb(214, 187, 0);"></path>
	<path class="st0" d="M38.113,367.563v40.006c0,6.597,1.325,13.025,3.957,19.41c2.649,6.368,6.606,12.692,11.87,18.874
		c2.224,2.589,4.72,5.153,7.403,7.675v-64.026c-1.749-1.307-3.447-2.623-5.111-3.956C49.354,379.925,43.258,373.922,38.113,367.563z
		" style="fill: rgb(214, 187, 0);"></path>
	<path class="st0" d="M79.92,468.122c6.198,4.067,12.99,7.964,20.36,11.614c3.176,1.58,6.47,3.073,9.832,4.534v-68.076
		c-10.851-4.381-20.954-9.245-30.192-14.552V468.122z" style="fill: rgb(214, 187, 0);"></path>
	<path class="st0" d="M128.705,422.979v68.22h-1.104c13.244,4.729,27.593,8.78,42.893,12.014v-69.314
		c-9.916-1.995-19.528-4.288-28.731-6.903C137.314,425.721,132.95,424.388,128.705,422.979z" style="fill: rgb(214, 187, 0);"></path>
	<path class="st0" d="M189.088,506.566c19.12,3.09,39.344,5.008,60.383,5.434v-69.731c-20.937-0.408-41.161-2.148-60.383-5.12
		V506.566z" style="fill: rgb(214, 187, 0);"></path>
	<path class="st0" d="M268.065,511.949c21.905-0.424,42.91-2.496,62.71-5.799v-69.314c-19.919,3.158-40.94,5.052-62.71,5.476
		V511.949z" style="fill: rgb(214, 187, 0);"></path>
	<path class="st0" d="M349.352,502.669c7.318-1.596,14.467-3.337,21.327-5.29c7.098-2.02,13.924-4.228,20.479-6.605v-68.585
		c-13.109,4.424-27.101,8.21-41.806,11.25V502.669z" style="fill: rgb(214, 187, 0);"></path>
	<path class="st0" d="M409.734,415.227v68.042c11.292-5.095,21.412-10.698,30.208-16.727v-66.257
		c-4.619,2.717-9.424,5.34-14.468,7.844C420.449,410.617,415.168,412.977,409.734,415.227z" style="fill: rgb(214, 187, 0);"></path>
	<path class="st0" d="M457.416,388.534h1.103v62.778c7.828-7.871,13.534-16.081,16.93-24.333c2.649-6.385,3.973-12.812,3.973-19.41
		v-39.989c-0.577,0.696-1.138,1.393-1.715,2.08C471.951,376.376,465.125,382.65,457.416,388.534z" style="fill: rgb(214, 187, 0);"></path>
	<path class="st0" d="M475.449,326.546c2.649-6.385,3.973-12.803,3.973-19.392c0-6.588-1.324-13.007-3.973-19.391
		c-2.632-6.376-6.588-12.702-11.87-18.874c-10.528-12.353-26.371-24.019-46.339-33.885c-39.939-19.799-96.23-32.398-158.481-32.364
		c-40.838,0-79.129,5.382-111.901,14.713c-32.79,9.314-60.061,22.636-78.876,37.995C55.4,265.56,46.672,276.614,42.07,287.762
		c-2.632,6.384-3.957,12.803-3.957,19.391c0,6.589,1.325,13.007,3.957,19.392c2.649,6.368,6.606,12.693,11.87,18.865
		c10.544,12.371,26.371,24.019,46.339,33.894c39.939,19.808,96.246,32.399,158.48,32.374c40.856,0,79.13-5.391,111.92-14.73
		c32.79-9.314,60.06-22.627,78.875-37.978C462.12,348.739,470.864,337.686,475.449,326.546z M284.264,370.916h-3.82h-21.005h-1.783
		h-21.005h-3.804l2.445-29.809l-43.843,0.322l2.683-22.024l42.995-0.586l1.171-16.131l-42.468,0.704l2.513-20.631l30.226-0.679
		l-28.968-50.06l33.435-1.171l25.505,41.169l25.522-41.169l33.435,1.171l-28.969,50.06l30.242,0.679l2.513,20.631l-42.469-0.704
		l1.155,16.131l42.995,0.586l2.683,22.024l-43.844-0.322L284.264,370.916z M442.048,318.158l-29.19,7.743
		c-0.782,0.153-1.393,0.781-1.562,1.562l-7.693,29.172c-0.203,0.85-0.951,1.46-1.834,1.46c-0.883,0-1.63-0.611-1.834-1.46
		l-7.709-29.172c-0.17-0.782-0.781-1.41-1.562-1.562l-29.172-7.743c-0.867-0.17-1.478-0.935-1.478-1.801
		c0-0.882,0.611-1.638,1.478-1.816l29.172-7.726c0.782-0.187,1.393-0.782,1.562-1.546l7.709-29.19
		c0.204-0.857,0.951-1.468,1.834-1.468c0.882,0,1.63,0.611,1.834,1.468l7.693,29.19c0.169,0.764,0.78,1.359,1.562,1.546l29.19,7.726
		c0.848,0.178,1.46,0.934,1.46,1.816C443.508,317.223,442.897,317.988,442.048,318.158z" style="fill: rgb(214, 187, 0);"></path>
</g>
</svg>
